<svg xmlns="http://www.w3.org/2000/svg" xmlns:xlink="http://www.w3.org/1999/xlink" width="695px" height="749px"  viewBox="-1.10468 -1 697.209 751" preserveAspectRatio="xMidYMid meet" ><rect id="svgEditorBackground" x="-1" y="-1" width="697" height="751" style="fill: none; stroke: none;"/>
<g stroke="null" >
<title>Layer 1</title>
<rect id="svg_87" height="25.342514" width="3.686184" y="468.673464" x="143.178641" stroke-opacity="null" stroke-width="0.5" fill="#ffffff" stroke="#ff0000"/>
<rect id="svg_86" height="24.420968" width="4.146957" y="469.59501" x="211.833815" stroke-opacity="null" stroke-width="0.5" fill="#ffffff" stroke="#ff0000"/>
<rect id="svg_85" height="12.44087" width="4.607728" y="690.305266" x="402.593824" stroke-opacity="null" stroke-width="0.5" fill="#ffffff" stroke="#ff0000"/>
<rect id="svg_84" height="34.0972" width="4.146957" y="666.805844" x="430.240206" stroke-opacity="null" stroke-width="0.5" fill="#ffffff" stroke="#ff0000"/>
<rect id="svg_83" height="15.205508" width="4.146957" y="649.296471" x="445.906487" stroke-opacity="null" stroke-width="0.5" fill="#ffffff" stroke="#ff0000"/>
<rect id="svg_82" height="36.861838" width="4.60773" y="626.718595" x="417.799335" stroke-opacity="null" stroke-width="0.5" fill="#ffffff" stroke="#ff0000"/>
<rect id="svg_81" height="14.744735" width="4.146957" y="608.287676" x="402.593827" stroke-opacity="null" stroke-width="0.5" fill="#ffffff" stroke="#ff0000"/>
<rect id="svg_80" height="39.626476" width="4.146953" y="586.170573" x="430.24021" stroke-opacity="null" stroke-width="0.5" fill="#ffffff" stroke="#ff0000"/>
<rect id="svg_79" height="15.205508" width="4.146957" y="567.739654" x="445.906487" stroke-opacity="null" stroke-width="0.5" fill="#ffffff" stroke="#ff0000"/>
<rect id="svg_78" height="35.940292" width="4.146957" y="546.544097" x="418.720881" stroke-opacity="null" stroke-width="0.5" fill="#ffffff" stroke="#ff0000"/>
<rect id="svg_77" height="14.283962" width="4.146957" y="526.730859" x="402.593827" stroke-opacity="null" stroke-width="0.5" fill="#ffffff" stroke="#ff0000"/>
<rect id="svg_76" height="36.861838" width="4.60773" y="505.996075" x="430.240206" stroke-opacity="null" stroke-width="0.5" fill="#ffffff" stroke="#ff0000"/>
<rect id="svg_75" height="13.823189" width="5.068503" y="488.025929" x="445.906487" stroke-opacity="null" stroke-width="0.5" fill="#ffffff" stroke="#ff0000"/>
<rect id="svg_74" height="78.331406" width="4.60773" y="421.213847" x="418.720881" stroke-opacity="null" stroke-width="0.5" fill="#ffffff" stroke="#ff0000"/>
<rect id="svg_88" height="4.60773" width="22.117103" y="416.145345" x="444.524168" stroke-opacity="null" stroke-width="0.5" fill="#ffffff" stroke="#ff0000"/>
<rect id="svg_6"  height="64.538426" width="18.634333" y="362.841801" x="508.622699" stroke-width="0.5" fill="#ffffff" stroke="#ff0000"/>
<rect id="svg_24" height="15.477119" width="46.431361" y="619.035513" x="286.165368" stroke-opacity="null" stroke-width="0.5" fill="#ffffff" stroke="#ff0000"/>
<rect id="svg_25" height="7.73856" width="10.96296" y="607.105232" x="292.614168" stroke-opacity="null" stroke-width="0.5" fill="#ffffff" stroke="#ff0000"/>
<rect id="svg_26" height="9.02832" width="29.664481" y="607.105232" x="307.446409" stroke-opacity="null" stroke-width="0.5" fill="#ffffff" stroke="#ff0000"/>
<rect id="svg_27" height="16.122" width="47.076241" y="588.726152" x="286.487808" stroke-opacity="null" stroke-width="0.5" fill="#ffffff" stroke="#ff0000"/>
<rect id="svg_31" height="22.24836" width="82.867081" y="689.004993" x="187.821167" stroke-opacity="null" stroke-width="0.5" fill="#ffffff" stroke="#ff0000"/>
<rect id="svg_32" height="31.599121" width="22.24836" y="678.042033" x="143.646886" stroke-opacity="null" stroke-width="0.5" fill="#ffffff" stroke="#ff0000"/>
<rect id="svg_33" height="18.37908" width="9.35076" y="673.527873" x="130.104406" stroke-opacity="null" stroke-width="0.5" fill="#ffffff" stroke="#ff0000"/>
<rect id="svg_34" height="18.70152" width="21.281042" y="650.957073" x="130.426857" stroke-opacity="null" stroke-width="0.5" fill="#ffffff" stroke="#ff0000"/>
<rect id="svg_35" height="19.02396" width="15.47712" y="673.527873" x="86.897445" stroke-opacity="null" stroke-width="0.5" fill="#ffffff" stroke="#ff0000"/>
<rect id="svg_36" height="7.73856" width="36.758161" y="702.547474" x="86.897445" stroke-opacity="null" stroke-width="0.5" fill="#ffffff" stroke="#ff0000"/>
<rect id="svg_40" height="72.226561" width="52.235281" y="565.832911" x="142.034686" stroke-opacity="null" stroke-width="0.5" fill="#ffffff" stroke="#ff0000"/>
<rect id="svg_43" height="44.174281" width="23.53812" y="523.91571" x="240.378887" stroke-opacity="null" stroke-width="0.5" fill="#ffffff" stroke="#ff0000"/>
<rect id="svg_44" height="25.47276" width="29.664481" y="534.233791" x="164.605486" stroke-opacity="null" stroke-width="0.5" fill="#ffffff" stroke="#ff0000"/>
<rect id="svg_47" height="7.09368" width="86.736361" y="415.575869" x="162.025966" stroke-opacity="null" stroke-width="0.5" fill="#ffffff" stroke="#ff0000"/>
<rect id="svg_51" height="44.496721" width="15.15468" y="380.752348" x="291.324408" stroke-opacity="null" stroke-width="0.5" fill="#ffffff" stroke="#ff0000"/>
<rect id="svg_52" height="36.758161" width="27.72984" y="308.525787" x="124.945365" stroke-opacity="null" stroke-width="0.5" fill="#ffffff" stroke="#ff0000"/>
<rect id="svg_53" height="21.28104" width="75.773401" y="301.432107" x="186.853847" stroke-opacity="null" stroke-width="0.5" fill="#ffffff" stroke="#ff0000"/>
<rect id="svg_54" height="21.92592" width="75.128521" y="333.998547" x="172.344046" stroke-opacity="null" stroke-width="0.5" fill="#ffffff" stroke="#ff0000"/>
<rect id="svg_55" height="64.149165" width="19.071373" y="448.541062" x="507.463032" stroke-opacity="null" stroke-width="0.5" fill="#ffffff" stroke="#ff0000"/>
<rect id="svg_60" height="13.127049" width="33.932184" y="554.795857" x="532.97409" stroke-opacity="null" stroke-width="0.5" fill="#ffffff" stroke="#ff0000"/>
<rect id="svg_66" height="15.142458" width="7.999789" y="428.665532" x="677.59658" stroke-opacity="null" stroke-width="0.5" fill="#ffffff" stroke="#ff0000"/>
<rect id="svg_67" height="7.546924" width="129.555533" y="294.529603" x="21.415285" stroke-opacity="null" stroke-width="0.5" fill="#ffffff" stroke="#ff0000"/>
<rect id="svg_69" height="12.50004" width="15.384664" y="182.616131" x="517.904381" stroke-opacity="null" stroke-width="0.5" fill="#ffffff" stroke="#ff0000"/>
<rect id="svg_70" height="46.752489" width="16.882843" y="512.276561" x="39.191479" stroke-opacity="null" stroke-width="0.5" fill="#ffffff" stroke="#ff0000"/>
<rect id="svg_73" height="18.579231" width="65.027324" y="449.092885" x="537.278672" stroke-opacity="null" stroke-width="0.5" fill="#ffffff" stroke="#ff0000"/>
<rect id="svg_4" height="67.19244" width="23.021592" y="363.439657" x="466.423112" stroke-width="0.5" fill="#ffffff" stroke="#ff0000"/>
<rect id="svg_7" height="17.270846" width="79.536792" y="408.745893" x="365.910968" stroke-opacity="null" stroke-width="0.5" fill="#ffffff" stroke="#ff0000"/>
<rect id="svg_8" height="22.270302" width="67.719897" y="445.105569" x="402.72514" stroke-opacity="null" stroke-width="0.5" fill="#ffffff" stroke="#ff0000"/>
<rect id="svg_9" height="8.70588" width="70.936801" y="481.99851" x="399.01937" stroke-opacity="null" stroke-width="0.5" fill="#ffffff" stroke="#ff0000"/>
<rect id="svg_10" height="12.25272" width="110.919362" y="497.15319" x="379.02809" stroke-opacity="null" stroke-width="0.5" fill="#ffffff" stroke="#ff0000"/>
<rect id="svg_11" height="9.35076" width="70.936801" y="522.30351" x="383.21981" stroke-opacity="null" stroke-width="0.5" fill="#ffffff" stroke="#ff0000"/>
<rect id="svg_12" height="11.93028" width="109.952042" y="537.458191" x="363.55097" stroke-opacity="null" stroke-width="0.5" fill="#ffffff" stroke="#ff0000"/>
<rect id="svg_13" height="9.02832" width="70.614361" y="562.608511" x="398.69693" stroke-opacity="null" stroke-width="0.5" fill="#ffffff" stroke="#ff0000"/>
<rect id="svg_14" height="11.93028" width="110.596922" y="578.085632" x="378.70565" stroke-opacity="null" stroke-width="0.5" fill="#ffffff" stroke="#ff0000"/>
<rect id="svg_15" height="9.35076" width="70.614361" y="602.913512" x="382.89737" stroke-opacity="null" stroke-width="0.5" fill="#ffffff" stroke="#ff0000"/>
<rect id="svg_16" height="11.930281" width="109.629602" y="618.713073" x="363.87341" stroke-opacity="null" stroke-width="0.5" fill="#ffffff" stroke="#ff0000"/>
<rect id="svg_17" height="8.70588" width="70.936801" y="643.540953" x="398.69693" stroke-opacity="null" stroke-width="0.5" fill="#ffffff" stroke="#ff0000"/>
<rect id="svg_18" height="12.25272" width="109.307162" y="658.695633" x="379.67297" stroke-opacity="null" stroke-width="0.5" fill="#ffffff" stroke="#ff0000"/>
<rect id="svg_19" height="9.02832" width="70.936801" y="683.845953" x="382.89737" stroke-opacity="null" stroke-width="0.5" fill="#ffffff" stroke="#ff0000"/>
<rect id="svg_20" height="11.60784" width="109.952042" y="699.323073" x="363.22853" stroke-opacity="null" stroke-width="0.5" fill="#ffffff" stroke="#ff0000"/>
<rect id="svg_45" height="17.7342" width="174.440043" y="490.38195" x="88.832085" stroke-opacity="null" stroke-width="0.5" fill="#ffffff" stroke="#ff0000"/>
<rect id="svg_46" height="13.22004" width="145.742883" y="460.072589" x="117.529245" stroke-opacity="null" stroke-width="0.5" fill="#ffffff" stroke="#ff0000"/>
</g>
<polygon stroke="black" id="e2_polygon" style="stroke-width: 1px; vector-effect: non-scaling-stroke;" points="92.6673 422.855 124.137 423.816 124.377 419.972 133.506 420.693 134.466 411.805 138.07 411.084 138.31 394.268 130.383 394.508 130.142 370.486 98.6729 370.005 97.9523 394.268 93.6282 393.547" fill="khaki"/>
<polygon stroke="black" id="e3_polygon" style="stroke-width: 1px; vector-effect: non-scaling-stroke;" points="46.3039 482.671 59.5163 483.151 59.2761 470.66 67.2035 438.469 54.4716 436.307 46.0637 464.654" fill="khaki"/>
<polygon stroke="black" id="e5_polygon" style="stroke-width: 1px; vector-effect: non-scaling-stroke;" points="8.44625 708.945 53.7153 709.229 53.7153 691.577 42.0421 691.293 42.0421 650.294 64.5343 649.44 64.2496 623.247 19.2653 624.101 19.2653 649.44 26.6677 649.725 26.383 692.147 8.73096 691.577" fill="khaki"/>
<polygon stroke="black" id="e6_polygon" style="stroke-width: 1px; vector-effect: non-scaling-stroke;" points="15.564 723.465 32.6467 723.465 32.362 728.02 41.7574 728.305 41.7574 722.611 63.3955 723.465 63.3955 740.263 39.7644 740.263 40.0492 743.964 33.2161 743.395 32.9314 735.423 15.8487 735.708" fill="khaki"/>
<polygon stroke="black" id="e7_polygon" style="stroke-width: 1px; vector-effect: non-scaling-stroke;" points="100.693 587.658 100.123 630.934 114.643 631.788 115.213 611.004 125.178 611.289 125.747 636.059 138.274 635.205 138.274 634.92 138.844 606.734 115.782 607.018 115.782 587.658" fill="khaki"/>
<polygon stroke="black" id="e8_polygon" style="stroke-width: 1px; vector-effect: non-scaling-stroke;" points="186.324 653.101 234.639 653.638 234.639 650.149 269.801 650.149 270.338 679.137 234.371 679.137 234.102 656.322 231.955 656.054 232.223 656.054 231.418 676.99 212.629 676.453 212.092 661.422 199.208 661.959 198.403 671.085 205.382 671.353 205.919 676.99 186.593 676.453" fill="khaki"/>
<polygon stroke="black" id="e9_polygon" style="stroke-width: 1px; vector-effect: non-scaling-stroke;" points="286.028 710.576 337.603 710.345 337.718 658.886 309.104 658.078 309.104 653.694 323.757 653.924 322.95 639.04 318.335 639.04 318.796 650.117 313.719 650.117 313.489 647.232 309.796 647.232 309.681 643.425 302.181 643.425 302.181 653.348 305.643 653.348 306.681 677.808 322.142 677.693 321.796 693.153 307.258 693.269 306.22 657.732 286.49 657.732" fill="khaki"/>
<polygon stroke="black" id="e10_polygon" style="stroke-width: 1px; vector-effect: non-scaling-stroke;" points="198.265 580.742 198.522 639.96 268.167 639.96 267.652 620.135 252.204 620.006 252.076 608.549 270.227 608.42 270.484 581.386" fill="khaki"/>
<polygon stroke="black" id="e11_polygon" style="stroke-width: 1px; vector-effect: non-scaling-stroke;" points="286.429 567.203 286.515 576.016 295.585 576.273 295.499 578.84 323.309 579.61 323.053 576.957 332.38 577.129 332.38 567.716" fill="khaki" />
<polygon stroke="black" id="e12_polygon" style="stroke-width: 1px; vector-effect: non-scaling-stroke;" points="285.907 561.975 333.997 561.975 333.997 548.797 301.31 549.311 301.481 535.62 318.424 535.62 318.424 549.482 333.997 549.14 334.168 522.613 286.25 522.613" fill="khaki"/>
<polygon stroke="black" id="e13_polygon" style="stroke-width: 1px; vector-effect: non-scaling-stroke;" points="487.252 733.132 497.213 739.108 492.896 745.25 483.932 740.27" fill="khaki"/>
<polygon stroke="black" id="e14_polygon" style="stroke-width: 1px; vector-effect: non-scaling-stroke;" points="574.291 574.132 574.696 592.893 591.837 593.163 591.972 585.605 582.389 585.74 582.389 581.421 591.837 581.69 591.837 573.862" fill="khaki"/>
<polygon stroke="black" id="e15_polygon" style="stroke-width: 1px; vector-effect: non-scaling-stroke;" points="556.744 596.808 573.211 596.538 573.076 607.74 585.224 607.875 585.224 604.366 590.353 604.501 591.163 625.692 566.057 625.557 566.192 628.931 556.744 629.066" fill="khaki"/>
<polygon stroke="black" id="e16_polygon" style="stroke-width: 1px; vector-effect: non-scaling-stroke;" points="641.317 449.408 649.739 449.632 649.739 454.349 659.508 454.349 659.957 463.557 663.439 463.557 663.551 475.123 641.541 475.348" fill="khaki"/>
<polygon stroke="black" id="e17_polygon" style="stroke-width: 1px; vector-effect: non-scaling-stroke;" points="213.992 183.944 232.999 183.944 232.999 142.251 310.867 141.638 310.867 134.28 323.129 134.587 323.129 141.025 341.829 142.251 341.829 141.025 341.829 122.631 323.436 123.244 322.823 130.908 310.867 129.988 310.867 122.018 263.043 122.324 263.656 110.062 310.867 111.901 310.56 104.544 322.516 104.85 323.129 111.901 342.443 112.208 341.829 93.2008 322.823 92.5877 322.823 100.558 311.173 100.252 311.786 93.2008 265.802 92.5877 271.013 87.0696 289.714 87.3761 298.911 74.807 312.093 74.807 312.093 38.6325 293.392 38.6325 293.392 73.8873 287.568 82.4711 286.955 69.5955 269.787 69.902 269.174 83.3908 263.656 90.4418 263.962 38.9391 255.992 38.9391 255.685 31.8881 262.736 31.8881 262.736 13.4943 244.342 13.8009 244.342 31.275 252.313 31.275 251.7 38.6325 244.649 38.6325 245.262 54.5738 232.999 55.187 233.306 38.0194 225.642 38.326 225.642 26.6765 232.386 26.9831 232.386 8.28273 215.219 7.97616 214.606 26.37 221.963 26.37 222.27 38.0194 214.606 38.0194 214.606 78.1792 199.891 78.4858 199.277 88.909 210.62 89.2155 214.912 93.2008 172.3 93.2008 172.3 110.675 171.993 110.675 215.219 112.514 214.912 123.244 171.993 122.631 172.606 141.331 213.686 141.638" fill="khaki"/>
</svg>